<svg xmlns="http://www.w3.org/2000/svg" width="24" height="22" viewBox="0 0 24 22" fill="none"><path d="M7.26252 5.59821H9.0738V6.08929V8.54464V9.03571H4.79134L5.98397 6.36858C6.19706 5.90513 6.70229 5.59821 7.26252 5.59821ZM10.7235 9.03571V8.54464V6.08929V5.59821H13.5144C13.9337 5.59821 14.3255 5.76702 14.5867 6.05859L17.2538 9.03571H10.7235ZM19.3847 9.05413L15.879 5.13783C15.305 4.49637 14.4355 4.125 13.5178 4.125H7.26252C6.02521 4.125 4.91507 4.79715 4.45452 5.82227L2.9835 9.10631C2.05552 9.3365 1.375 10.0977 1.375 11V14.4375C1.375 14.9807 1.86649 15.4196 2.47483 15.4196H3.61934C3.88055 16.8131 5.23815 17.875 6.87414 17.875C8.51014 17.875 9.86774 16.8131 10.1289 15.4196H14.6211C14.8823 16.8131 16.2399 17.875 17.8759 17.875C19.5119 17.875 20.8695 16.8131 21.1307 15.4196H22.2752C22.8835 15.4196 23.375 14.9807 23.375 14.4375V12.9643C23.375 10.9171 21.6256 9.23828 19.3881 9.05413H19.3847ZM16.3155 14.4375C16.3855 14.2526 16.4959 14.082 16.6404 13.9355C16.7849 13.7891 16.9605 13.6698 17.1571 13.5844C17.3537 13.4991 17.5673 13.4495 17.7855 13.4386C18.0037 13.4276 18.2222 13.4554 18.4283 13.5205C18.6343 13.5856 18.8238 13.6865 18.9858 13.8176C19.1478 13.9486 19.279 14.1071 19.3718 14.2837C19.4647 14.4604 19.5173 14.6519 19.5265 14.8468C19.5358 15.0418 19.5016 15.2365 19.4259 15.4196C19.3559 15.6045 19.2455 15.7752 19.101 15.9216C18.9565 16.068 18.7809 16.1874 18.5843 16.2727C18.3877 16.358 18.1741 16.4076 17.9559 16.4186C17.7377 16.4296 17.5192 16.4017 17.3132 16.3367C17.1071 16.2716 16.9176 16.1706 16.7556 16.0396C16.5936 15.9086 16.4624 15.7501 16.3696 15.5734C16.2767 15.3967 16.2242 15.2053 16.2149 15.0103C16.2056 14.8153 16.2398 14.6206 16.3155 14.4375ZM20.9829 13.9464C20.5292 12.8016 19.3091 11.9821 17.8724 11.9821C16.4358 11.9821 15.2122 12.8016 14.762 13.9464H9.98803C9.53435 12.8016 8.31423 11.9821 6.87758 11.9821C5.44093 11.9821 4.21737 12.8016 3.76713 13.9464H3.02474V11C3.02474 10.7299 3.2722 10.5089 3.57466 10.5089H18.9723C20.4914 10.5089 21.7218 11.6077 21.7218 12.9643V13.9464H20.9829ZM6.87414 13.4554C7.31168 13.4554 7.7313 13.6106 8.04069 13.8869C8.35007 14.1631 8.52388 14.5379 8.52388 14.9286C8.52388 15.3193 8.35007 15.694 8.04069 15.9703C7.7313 16.2466 7.31168 16.4018 6.87414 16.4018C6.4366 16.4018 6.01698 16.2466 5.7076 15.9703C5.39821 15.694 5.2244 15.3193 5.2244 14.9286C5.2244 14.5379 5.39821 14.1631 5.7076 13.8869C6.01698 13.6106 6.4366 13.4554 6.87414 13.4554Z" fill="#3F4645"></path></svg>