<svg xmlns="http://www.w3.org/2000/svg" width="24" height="22" viewBox="0 0 24 22" fill="none"><path d="M11.4185 0.213379C11.0799 -0.0711263 10.5872 -0.0711263 10.2486 0.213379L0.318061 8.5988C-0.0618583 8.92074 -0.106997 9.486 0.212737 9.86409C0.53247 10.2422 1.10423 10.2871 1.48415 9.96891L2.4095 9.19027V16.1719C2.4095 17.8265 3.75614 19.1667 5.41876 19.1667H16.2521C17.9147 19.1667 19.2613 17.8265 19.2613 16.1719L19.1683 7.5H20.835L11.4185 0.213379ZM4.21505 16.1719V7.66667L10.8354 2.07764L17.5016 7.5L17.4558 16.1719C17.4558 16.8345 16.9179 17.3698 16.2521 17.3698H14.4465V11.6797C14.4465 10.8524 13.7732 10.1823 12.9419 10.1823H8.72894C7.89763 10.1823 7.22431 10.8524 7.22431 11.6797V17.3698H5.41876C4.75296 17.3698 4.21505 16.8345 4.21505 16.1719ZM9.02987 17.3698V11.9792H12.641V17.3698H9.02987Z" fill="#3F4645"></path><path d="M18.5845 8.16666C19.6367 8.16666 20.2545 9.33578 19.6772 10.2057L19.6763 10.2077L19.021 11.1901C20.2659 12.0059 22.6685 13.8002 22.6685 17.2917C22.6685 18.8791 21.3809 20.1667 19.7935 20.1667H13.5435C11.956 20.1667 10.6685 18.8791 10.6685 17.2917C10.6685 13.8009 13.0698 12.0061 14.3149 11.1901L13.6606 10.2077L13.6597 10.2057C13.0824 9.33578 13.7002 8.16666 14.7524 8.16666H18.5845Z" fill="#3F4645" stroke="white" stroke-width="2"></path></svg>